<?xml version="1.0"?>
<svg xmlns="http://www.w3.org/2000/svg" xmlns:xlink="http://www.w3.org/1999/xlink" xmlns:svgjs="http://svgjs.com/svgjs" version="1.1" width="512" height="512" x="0" y="0" viewBox="0 0 512 512" style="enable-background:new 0 0 512 512" xml:space="preserve"><g><title xmlns="http://www.w3.org/2000/svg">Search</title><path xmlns="http://www.w3.org/2000/svg" d="M408.979,350.96a8,8,0,0,0-11.315,0l-17.6,17.6-28.612-28.695a196.845,196.845,0,0,0,52.308-133.774c0-108.957-88.644-197.6-197.6-197.6s-197.6,88.643-197.6,197.6,88.643,197.6,197.6,197.6a196.849,196.849,0,0,0,133.987-52.5l28.605,28.688L350.921,397.7a8,8,0,0,0,0,11.313l82.5,82.5a41.032,41.032,0,0,0,58.015-.049l1.254-1.254c.1-.1.194-.2.286-.3,14.5-16.065,13.784-41.432-1.542-56.5ZM206.158,387.692c-100.135,0-181.6-81.465-181.6-181.6s81.465-181.6,181.6-181.6,181.6,81.466,181.6,181.6S306.293,387.692,206.158,387.692Zm275.07,91.365-1.06,1.059a25.121,25.121,0,0,1-35.476.046l-76.8-76.8,35.429-35.429,76.85,76.849A25.136,25.136,0,0,1,481.228,479.057Z" fill="#af955b" data-original="#000000" style=""/><path xmlns="http://www.w3.org/2000/svg" d="M330.9,191.855l-5.718-1.524a8.473,8.473,0,0,1-5.456-5.02A24.22,24.22,0,0,0,297.331,170H117.848L97.141,137.35a7.649,7.649,0,0,0-6.78-3.35H76.171C71.753,134,68,137.168,68,141.586v70.8a8.079,8.079,0,0,0,4.931,7.352l28.706,12.166A125.637,125.637,0,0,0,151.458,242H189.9l-26,47.4a7.762,7.762,0,0,0,.123,7.8,7.883,7.883,0,0,0,6.887,3.8h36.657a7.941,7.941,0,0,0,6.036-2.687L262.654,242h61.639a25.488,25.488,0,0,0,6.605-50.145ZM84,150h1.933l13.035,20H84Zm240.293,76H259.011a7.941,7.941,0,0,0-6.036,2.687L203.928,285H184.445l26-47.075A8.053,8.053,0,0,0,203.433,226H151.458a109.926,109.926,0,0,1-43.555-8.8L84,207.114V186H297.331a8.293,8.293,0,0,1,7.555,5.3,24.4,24.4,0,0,0,16.172,14.4l5.717,1.574A9.516,9.516,0,0,1,324.293,226Z" fill="#af955b" data-original="#000000" style=""/></g></svg>
